<svg height="512pt" viewBox="0 -22 512 512" width="512pt" xmlns="http://www.w3.org/2000/svg"><path d="m171.089844 460.292969h-153.757813c-5.429687 0-9.832031-4.402344-9.832031-9.832031v-433.128907c0-5.429687 4.402344-9.832031 9.832031-9.832031h153.757813c5.429687 0 9.832031 4.402344 9.832031 9.832031v433.128907c.003906 5.429687-4.398437 9.832031-9.832031 9.832031zm0 0" fill="#00d2b4"/><path d="m180.921875 17.335938v433.121093c0 5.4375-4.40625 9.832031-9.832031 9.832031h-21.140625c5.429687 0 9.832031-4.394531 9.832031-9.832031v-433.121093c0-5.4375-4.402344-9.832032-9.832031-9.832032h21.140625c5.425781 0 9.832031 4.394532 9.832031 9.832032zm0 0" fill="#00b7a0"/><path d="m283.109375 83.050781h-55.886719c-5.429687 0-9.832031-4.402343-9.832031-9.832031v-55.886719c0-5.429687 4.402344-9.832031 9.832031-9.832031h55.886719c5.429687 0 9.832031 4.402344 9.832031 9.832031v55.886719c0 5.429688-4.402344 9.832031-9.832031 9.832031zm0 0" fill="#ffde46"/><path d="m292.941406 17.335938v55.886718c0 5.425782-4.40625 9.832032-9.832031 9.832032h-21.140625c5.429688 0 9.832031-4.40625 9.832031-9.832032v-55.886718c0-5.4375-4.402343-9.832032-9.832031-9.832032h21.140625c5.425781 0 9.832031 4.394532 9.832031 9.832032zm0 0" fill="#f9c60b"/><path d="m283.109375 193.566406h-55.886719c-5.429687 0-9.832031-4.402344-9.832031-9.832031v-55.882813c0-5.429687 4.402344-9.832031 9.832031-9.832031h55.886719c5.429687 0 9.832031 4.402344 9.832031 9.832031v55.882813c0 5.429687-4.402344 9.832031-9.832031 9.832031zm0 0" fill="#ff3b82"/><path d="m292.941406 127.851562v55.886719c0 5.425781-4.40625 9.832031-9.832031 9.832031h-21.140625c5.429688 0 9.832031-4.40625 9.832031-9.832031v-55.886719c0-5.429687-4.402343-9.832031-9.832031-9.832031h21.140625c5.425781-.003906 9.832031 4.402344 9.832031 9.832031zm0 0" fill="#e11158"/><path d="m486.332031 83.050781h-146.347656c-5.429687 0-9.832031-4.402343-9.832031-9.832031v-55.886719c0-5.429687 4.402344-9.832031 9.832031-9.832031h146.347656c5.429688 0 9.832031 4.402344 9.832031 9.832031v55.886719c0 5.429688-4.402343 9.832031-9.832031 9.832031zm0 0" fill="#ff3b82"/><path d="m496.164062 17.335938v55.886718c0 5.425782-4.40625 9.832032-9.832031 9.832032h-21.140625c5.429688 0 9.832032-4.40625 9.832032-9.832032v-55.886718c0-5.4375-4.402344-9.832032-9.832032-9.832032h21.140625c5.425781 0 9.832031 4.394532 9.832031 9.832032zm0 0" fill="#e11158"/><path d="m486.332031 193.566406h-146.347656c-5.429687 0-9.832031-4.402344-9.832031-9.832031v-55.882813c0-5.429687 4.402344-9.832031 9.832031-9.832031h146.347656c5.429688 0 9.832031 4.402344 9.832031 9.832031v55.882813c0 5.429687-4.402343 9.832031-9.832031 9.832031zm0 0" fill="#ffde46"/><path d="m496.164062 127.851562v55.886719c0 5.425781-4.40625 9.832031-9.832031 9.832031h-21.140625c5.429688 0 9.832032-4.40625 9.832032-9.832031v-55.886719c0-5.429687-4.402344-9.832031-9.832032-9.832031h21.140625c5.425781-.003906 9.832031 4.402344 9.832031 9.832031zm0 0" fill="#f9c60b"/><path d="m487.171875 329.972656h-252.449219c-9.574218 0-17.332031-7.757812-17.332031-17.332031 0-9.570313 7.757813-17.328125 17.332031-17.328125h252.449219c9.570313 0 17.328125 7.757812 17.328125 17.328125 0 9.574219-7.757812 17.332031-17.328125 17.332031zm0 0" fill="#8cbcd4"/><path d="m504.5 312.640625c0 4.789063-1.9375 9.117187-5.074219 12.253906s-7.472656 5.082031-12.261719 5.082031h-22.277343c4.789062 0 9.113281-1.949218 12.25-5.082031 3.136719-3.136719 5.074219-7.464843 5.074219-12.253906 0-9.566406-7.757813-17.324219-17.324219-17.324219h22.277343c9.578126 0 17.335938 7.757813 17.335938 17.324219zm0 0" fill="#6facca"/><path d="m487.171875 395.132812h-252.449219c-9.574218 0-17.332031-7.757812-17.332031-17.328124 0-9.574219 7.757813-17.332032 17.332031-17.332032h252.449219c9.570313 0 17.328125 7.757813 17.328125 17.332032 0 9.570312-7.757812 17.328124-17.328125 17.328124zm0 0" fill="#3c94bb"/><path d="m504.5 377.800781c0 4.789063-1.9375 9.125-5.074219 12.261719s-7.472656 5.074219-12.261719 5.074219h-22.277343c4.789062 0 9.113281-1.9375 12.25-5.074219s5.074219-7.472656 5.074219-12.261719c0-9.566406-7.757813-17.324219-17.324219-17.324219h22.277343c9.578126 0 17.335938 7.757813 17.335938 17.324219zm0 0" fill="#1683ae"/><path d="m487.171875 460.292969h-252.449219c-9.574218 0-17.332031-7.757813-17.332031-17.328125 0-9.570313 7.757813-17.332032 17.332031-17.332032h252.449219c9.570313 0 17.328125 7.761719 17.328125 17.332032 0 9.570312-7.757812 17.328125-17.328125 17.328125zm0 0" fill="#0a7296"/><path d="m504.5 442.960938c0 4.785156-1.9375 9.121093-5.074219 12.257812s-7.472656 5.074219-12.261719 5.074219h-22.277343c4.789062 0 9.113281-1.9375 12.25-5.074219 3.136719-3.132812 5.074219-7.472656 5.074219-12.257812 0-9.570313-7.757813-17.324219-17.324219-17.324219h22.277343c9.578126 0 17.335938 7.753906 17.335938 17.324219zm0 0" fill="#075f7f"/><path d="m487.171875 264.8125h-252.449219c-9.574218 0-17.332031-7.757812-17.332031-17.332031 0-9.570313 7.757813-17.328125 17.332031-17.328125h252.449219c9.570313 0 17.328125 7.757812 17.328125 17.328125 0 9.574219-7.757812 17.332031-17.328125 17.332031zm0 0" fill="#b6d3e3"/><path d="m504.5 247.480469c0 4.789062-1.9375 9.117187-5.074219 12.25-3.136719 3.136719-7.472656 5.085937-12.261719 5.085937h-22.277343c4.789062 0 9.113281-1.949218 12.25-5.085937s5.074219-7.460938 5.074219-12.25c0-9.566407-7.757813-17.324219-17.324219-17.324219h22.277343c9.578126 0 17.335938 7.757812 17.335938 17.324219zm0 0" fill="#8cbcd4"/><path d="m171.09375 0h-153.761719c-9.558593 0-17.332031 7.773438-17.332031 17.332031v433.128907c0 9.558593 7.773438 17.332031 17.332031 17.332031h153.761719c9.554688 0 17.332031-7.773438 17.332031-17.332031v-149.867188c0-4.140625-3.359375-7.5-7.5-7.5-4.144531 0-7.5 3.359375-7.5 7.5v149.867188c0 1.285156-1.046875 2.332031-2.332031 2.332031h-153.761719c-1.285156 0-2.332031-1.046875-2.332031-2.332031v-433.128907c0-1.285156 1.046875-2.332031 2.332031-2.332031h153.761719c1.285156 0 2.332031 1.046875 2.332031 2.332031v247.867188c0 4.144531 3.355469 7.5 7.5 7.5 4.140625 0 7.5-3.355469 7.5-7.5v-247.867188c0-9.558593-7.777343-17.332031-17.332031-17.332031zm0 0"/><path d="m227.222656 90.550781h55.886719c9.554687 0 17.332031-7.777343 17.332031-17.332031v-55.886719c0-9.554687-7.777344-17.332031-17.332031-17.332031h-55.886719c-9.554687 0-17.332031 7.773438-17.332031 17.332031v55.886719c0 9.554688 7.777344 17.332031 17.332031 17.332031zm-2.332031-73.21875c0-1.285156 1.046875-2.332031 2.332031-2.332031h55.886719c1.285156 0 2.332031 1.046875 2.332031 2.332031v55.886719c0 1.285156-1.046875 2.332031-2.332031 2.332031h-55.886719c-1.285156 0-2.332031-1.046875-2.332031-2.332031zm0 0"/><path d="m227.222656 201.066406h55.886719c9.554687 0 17.332031-7.773437 17.332031-17.332031v-55.882813c0-9.558593-7.777344-17.332031-17.332031-17.332031h-55.886719c-9.554687 0-17.332031 7.773438-17.332031 17.332031v55.882813c0 9.558594 7.777344 17.332031 17.332031 17.332031zm-2.332031-73.214844c0-1.285156 1.046875-2.332031 2.332031-2.332031h55.886719c1.285156 0 2.332031 1.042969 2.332031 2.332031v55.882813c0 1.285156-1.046875 2.332031-2.332031 2.332031h-55.886719c-1.285156 0-2.332031-1.046875-2.332031-2.332031zm0 0"/><path d="m339.984375 90.550781h27.316406c4.144531 0 7.5-3.359375 7.5-7.5 0-4.144531-3.355469-7.5-7.5-7.5h-27.316406c-1.285156 0-2.332031-1.046875-2.332031-2.335937v-55.882813c0-1.285156 1.046875-2.332031 2.332031-2.332031h146.347656c1.285157 0 2.332031 1.046875 2.332031 2.332031v55.886719c0 1.285156-1.046874 2.332031-2.332031 2.332031h-83.636719c-4.140624 0-7.5 3.355469-7.5 7.5 0 4.140625 3.359376 7.5 7.5 7.5h83.636719c9.558594 0 17.332031-7.777343 17.332031-17.332031v-55.886719c0-9.554687-7.773437-17.332031-17.332031-17.332031h-146.347656c-9.554687 0-17.332031 7.773438-17.332031 17.332031v55.886719c0 9.554688 7.777344 17.332031 17.332031 17.332031zm0 0"/><path d="m339.984375 201.066406h146.347656c9.558594 0 17.332031-7.773437 17.332031-17.332031v-55.882813c0-9.558593-7.773437-17.332031-17.332031-17.332031h-146.347656c-9.554687 0-17.332031 7.773438-17.332031 17.332031v55.882813c0 9.558594 7.777344 17.332031 17.332031 17.332031zm-2.332031-73.214844c0-1.285156 1.046875-2.332031 2.332031-2.332031h146.347656c1.285157 0 2.332031 1.042969 2.332031 2.332031v55.882813c0 1.285156-1.046874 2.332031-2.332031 2.332031h-146.347656c-1.285156 0-2.332031-1.046875-2.332031-2.332031zm0 0"/><path d="m487.171875 287.8125h-252.449219c-13.691406 0-24.832031 11.140625-24.832031 24.832031 0 13.691407 11.140625 24.828125 24.832031 24.828125h252.449219c13.6875 0 24.828125-11.136718 24.828125-24.828125 0-13.691406-11.140625-24.832031-24.828125-24.832031zm0 34.660156h-252.449219c-5.421875 0-9.832031-4.410156-9.832031-9.828125 0-5.421875 4.410156-9.832031 9.832031-9.832031h252.449219c5.417969 0 9.828125 4.410156 9.828125 9.832031 0 5.417969-4.410156 9.828125-9.828125 9.828125zm0 0"/><path d="m487.171875 352.972656h-252.449219c-13.691406 0-24.832031 11.140625-24.832031 24.832032 0 13.6875 11.140625 24.828124 24.832031 24.828124h252.449219c13.6875 0 24.828125-11.140624 24.828125-24.828124 0-13.691407-11.140625-24.832032-24.828125-24.832032zm0 34.660156h-252.449219c-5.421875 0-9.832031-4.410156-9.832031-9.828124 0-5.421876 4.410156-9.832032 9.832031-9.832032h252.449219c5.417969 0 9.828125 4.410156 9.828125 9.832032 0 5.417968-4.410156 9.828124-9.828125 9.828124zm0 0"/><path d="m487.171875 418.132812h-149.476563c-4.140624 0-7.5 3.359376-7.5 7.5 0 4.144532 3.359376 7.5 7.5 7.5h149.476563c5.417969 0 9.828125 4.410157 9.828125 9.832032 0 5.417968-4.410156 9.828125-9.828125 9.828125h-252.449219c-5.421875 0-9.832031-4.410157-9.832031-9.828125 0-5.421875 4.410156-9.832032 9.832031-9.832032h67.582032c4.140624 0 7.5-3.355468 7.5-7.5 0-4.140624-3.359376-7.5-7.5-7.5h-67.582032c-13.691406 0-24.832031 11.140626-24.832031 24.832032s11.140625 24.828125 24.832031 24.828125h252.449219c13.6875 0 24.828125-11.136719 24.828125-24.828125s-11.140625-24.832032-24.828125-24.832032zm0 0"/><path d="m234.722656 272.3125h252.449219c13.6875 0 24.828125-11.140625 24.828125-24.832031 0-13.691407-11.140625-24.828125-24.828125-24.828125h-252.449219c-13.691406 0-24.832031 11.136718-24.832031 24.828125 0 13.691406 11.140625 24.832031 24.832031 24.832031zm0-34.660156h252.449219c5.417969 0 9.828125 4.410156 9.828125 9.828125 0 5.421875-4.410156 9.832031-9.828125 9.832031h-252.449219c-5.421875 0-9.832031-4.410156-9.832031-9.832031 0-5.417969 4.410156-9.828125 9.832031-9.828125zm0 0"/><path d="m51.710938 298.664062h21c4.144531 0 7.5-3.359374 7.5-7.5 0-4.140624-3.355469-7.5-7.5-7.5h-21c-4.140626 0-7.5 3.359376-7.5 7.5 0 4.140626 3.359374 7.5 7.5 7.5zm0 0"/><path d="m136.710938 329.621094h-85c-4.140626 0-7.5 3.359375-7.5 7.5 0 4.144531 3.359374 7.5 7.5 7.5h85c4.144531 0 7.5-3.355469 7.5-7.5 0-4.140625-3.355469-7.5-7.5-7.5zm0 0"/><path d="m136.710938 362.621094h-85c-4.140626 0-7.5 3.359375-7.5 7.5 0 4.144531 3.359374 7.5 7.5 7.5h85c4.144531 0 7.5-3.355469 7.5-7.5 0-4.140625-3.355469-7.5-7.5-7.5zm0 0"/><path d="m136.710938 395.621094h-85c-4.140626 0-7.5 3.359375-7.5 7.5 0 4.144531 3.359374 7.5 7.5 7.5h85c4.144531 0 7.5-3.355469 7.5-7.5 0-4.140625-3.355469-7.5-7.5-7.5zm0 0"/></svg>