<?xml version="1.0" encoding="iso-8859-1"?>
<!-- Generator: Adobe Illustrator 19.0.0, SVG Export Plug-In . SVG Version: 6.00 Build 0)  -->
<svg version="1.1" id="Capa_1" xmlns="http://www.w3.org/2000/svg" xmlns:xlink="http://www.w3.org/1999/xlink" x="0px" y="0px"
	 viewBox="0 0 512 512" style="enable-background:new 0 0 512 512;" xml:space="preserve">
<polygon style="fill:#2DADE3;" points="459.5,324.5 339.5,27.09 489.5,27.09 489.5,324.5 "/>
<rect x="22.5" y="27.5" style="fill:#49C9FF;" width="437" height="297"/>
<polygon style="fill:#999999;" points="474.5,42.5 444.5,25 474.5,7.5 504.5,7.5 504.5,42.5 "/>
<rect x="7.5" y="7.5" style="fill:#B3B3B3;" width="467" height="35"/>
<path style="fill:#FF6337;" d="M281,192.09h-30l20,120h30v-100C301,201.044,292.046,192.09,281,192.09z"/>
<path style="fill:#FF8646;" d="M251,192.09h-20c-11.046,0-20,8.954-20,20v100h60v-100C271,201.044,262.046,192.09,251,192.09z"/>
<path style="fill:#85453D;" d="M223.409,86.06l-36.196,38.015c-3.847,4.037-6.213,9.498-6.213,15.515
	c0,12.426,10.074,22.5,22.5,22.5H256V86.06H223.409z"/>
<path style="fill:#60312C;" d="M324.787,124.075L288.591,86.06H256v76.03h52.5c12.426,0,22.5-10.074,22.5-22.5
	C331,133.573,328.634,128.112,324.787,124.075z"/>
<path style="fill:#FFA754;" d="M255.997,82.09v80c24.853,0,45-20.147,45-45c0-5.261-0.912-10.307-2.571-15L255.997,82.09z"/>
<path style="fill:#60312C;" d="M255.997,72.09l14.143,30h28.286C292.248,84.614,275.589,72.09,255.997,72.09z"/>
<path style="fill:#FFCB63;" d="M213.568,102.09c-1.659,4.693-2.571,9.739-2.571,15c0,24.853,20.147,45,45,45
	c8.284,0,15-20.147,15-45c0-5.261-0.304-10.307-0.857-15l-14.143-20L213.568,102.09z"/>
<path style="fill:#85453D;" d="M255.997,72.09c-19.592,0-36.25,12.524-42.429,30h56.572C268.081,84.614,262.528,72.09,255.997,72.09
	z"/>
<polygon style="fill:#60312C;" points="166,282.09 166,312.09 300,494.5 346,494.5 346,282.09 "/>
<rect x="166" y="312.09" style="fill:#85453D;" width="150" height="182.41"/>
<path style="fill:#CF301B;" d="M461,474.5h-30l20,30h30v-10C481,483.454,472.046,474.5,461,474.5z"/>
<path style="fill:#FF4128;" d="M431,474.5h-20c-11.046,0-20,8.954-20,20v10h60v-10C451,483.454,442.046,474.5,431,474.5z"/>
<path style="fill:#FF8D7E;" d="M436,354.5v90c24.853,0,45-20.147,45-45S460.853,354.5,436,354.5z"/>
<path style="fill:#FFB4A9;" d="M451,399.5c0-24.853-6.716-45-15-45c-24.853,0-45,20.147-45,45s20.147,45,45,45
	C444.284,444.5,451,424.353,451,399.5z"/>
<path style="fill:#9DB55F;" d="M371,474.5h-30l20,30h30v-10C391,483.454,382.046,474.5,371,474.5z"/>
<path style="fill:#B9D171;" d="M341,474.5h-20c-11.046,0-20,8.954-20,20v10h60v-10C361,483.454,352.046,474.5,341,474.5z"/>
<path style="fill:#C27749;" d="M346,354.5v90c24.853,0,45-20.147,45-45S370.853,354.5,346,354.5z"/>
<path style="fill:#E18F4E;" d="M361,399.5c0-24.853-6.716-45-15-45c-24.853,0-45,20.147-45,45s20.147,45,45,45
	C354.284,444.5,361,424.353,361,399.5z"/>
<path style="fill:#A8E5FF;" d="M281,474.5h-30l20,30h30v-10C301,483.454,292.046,474.5,281,474.5z"/>
<path style="fill:#DBF4FF;" d="M251,474.5h-20c-11.046,0-20,8.954-20,20v10h60v-10C271,483.454,262.046,474.5,251,474.5z"/>
<path style="fill:#FFD9D4;" d="M256,354.5v90c24.853,0,45-20.147,45-45S280.853,354.5,256,354.5z"/>
<path style="fill:#FFF0D3;" d="M271,399.5c0-24.853-6.716-45-15-45c-24.853,0-45,20.147-45,45s20.147,45,45,45
	C264.284,444.5,271,424.353,271,399.5z"/>
<path style="fill:#FFA754;" d="M191,474.5h-30l20,30h30v-10C211,483.454,202.046,474.5,191,474.5z"/>
<path style="fill:#FFCB63;" d="M161,474.5h-20c-11.046,0-20,8.954-20,20v10h60v-10C181,483.454,172.046,474.5,161,474.5z"/>
<path style="fill:#FFB4A9;" d="M166,354.5v90c24.853,0,45-20.147,45-45S190.853,354.5,166,354.5z"/>
<path style="fill:#FFD9D4;" d="M181,399.5c0-24.853-6.716-45-15-45c-24.853,0-45,20.147-45,45s20.147,45,45,45
	C174.284,444.5,181,424.353,181,399.5z"/>
<path style="fill:#2DADE3;" d="M101,474.5H71l20,30h30v-10C121,483.454,112.046,474.5,101,474.5z"/>
<path style="fill:#49C9FF;" d="M71,474.5H51c-11.046,0-20,8.954-20,20v10h60v-10C91,483.454,82.046,474.5,71,474.5z"/>
<path style="fill:#85453D;" d="M76,354.5v90c24.853,0,45-20.147,45-45S100.853,354.5,76,354.5z"/>
<path style="fill:#A45E43;" d="M91,399.5c0-24.853-6.716-45-15-45c-24.853,0-45,20.147-45,45s20.147,45,45,45
	C84.284,444.5,91,424.353,91,399.5z"/>
<path d="M504.5,49.59c4.143,0,7.5-3.357,7.5-7.5V7.5c0-4.143-3.357-7.5-7.5-7.5H7.5C3.357,0,0,3.357,0,7.5v34.59
	c0,4.143,3.357,7.5,7.5,7.5H15V317H7.5c-4.143,0-7.5,3.357-7.5,7.5s3.357,7.5,7.5,7.5H136c4.143,0,7.5-3.357,7.5-7.5
	s-3.357-7.5-7.5-7.5H30V49.59h452V317H376c-4.143,0-7.5,3.357-7.5,7.5s3.357,7.5,7.5,7.5h128.5c4.143,0,7.5-3.357,7.5-7.5
	s-3.357-7.5-7.5-7.5H497V49.59H504.5z M15,15h482v19.59H15V15z"/>
<path d="M308.5,169.59c16.542,0,30-13.458,30-30c0-7.735-2.941-15.082-8.281-20.687l-36.196-38.015
	c-0.18-0.189-0.368-0.366-0.562-0.533C283.926,70.635,270.658,64.59,256,64.59c-14.997,0-28.536,6.332-38.112,16.45
	c-0.458,0.444-0.93,0.933-1.45,1.478L181.785,118.9c-5.343,5.606-8.285,12.953-8.285,20.689c0,16.542,13.458,30,30,30L308.5,169.59
	L308.5,169.59z M218.5,117.09c0-2.568,0.261-5.076,0.755-7.5h73.491c0.494,2.424,0.755,4.932,0.755,7.5
	c0,20.678-16.822,37.5-37.5,37.5S218.5,137.768,218.5,117.09z M323.5,139.59c0,8.271-6.729,15-15,15h-15.808
	c9.581-9.376,15.59-22.378,15.789-36.763l10.876,11.422C322.028,132.053,323.5,135.725,323.5,139.59z M285.98,94.59h-59.96
	c6.849-9.102,17.737-15,29.98-15C268.243,79.59,279.131,85.488,285.98,94.59z M188.5,139.59c0-3.865,1.472-7.537,4.146-10.343
	c3.093-3.249,6.902-7.249,10.873-11.419c0.2,14.385,6.209,27.386,15.789,36.762H203.5C195.229,154.59,188.5,147.861,188.5,139.59z"
	/>
<circle cx="256" cy="222.09" r="7.5"/>
<circle cx="256" cy="252.09" r="7.5"/>
<path d="M391,426.509c9.194,15.26,25.923,25.491,45,25.491c28.948,0,52.5-23.552,52.5-52.5S464.948,347,436,347
	c-19.077,0-35.806,10.231-45,25.491c-7.966-13.223-21.592-22.661-37.5-24.947V289.59h7.5c4.143,0,7.5-3.357,7.5-7.5
	s-3.357-7.5-7.5-7.5h-52.5v-55.286c50.271-3.842,90-45.976,90-97.214c0-4.143-3.357-7.5-7.5-7.5s-7.5,3.357-7.5,7.5
	c0,43.343-33.605,78.961-76.125,82.229c-3.362-11.39-13.91-19.729-26.375-19.729h-50c-12.465,0-23.013,8.339-26.375,19.729
	c-42.52-3.268-76.125-38.886-76.125-82.229c0-4.143-3.357-7.5-7.5-7.5s-7.5,3.357-7.5,7.5c0,51.239,39.729,93.372,90,97.214v55.286
	H151c-4.143,0-7.5,3.357-7.5,7.5s3.357,7.5,7.5,7.5h7.5v57.954c-15.908,2.286-29.534,11.724-37.5,24.947
	C111.806,357.231,95.077,347,76,347c-28.948,0-52.5,23.552-52.5,52.5S47.052,452,76,452c19.077,0,35.806-10.231,45-25.491
	c7.966,13.223,21.592,22.661,37.5,24.947V467H141c-7.875,0-14.982,3.333-20,8.655c-5.018-5.323-12.125-8.655-20-8.655H51
	c-15.163,0-27.5,12.337-27.5,27.5v10c0,4.143,3.357,7.5,7.5,7.5h450c4.143,0,7.5-3.357,7.5-7.5v-10c0-15.163-12.337-27.5-27.5-27.5
	h-50c-7.875,0-14.982,3.333-20,8.655c-5.018-5.323-12.125-8.655-20-8.655h-17.5v-15.544
	C369.408,449.169,383.034,439.732,391,426.509z M436,362c20.678,0,37.5,16.822,37.5,37.5S456.678,437,436,437
	s-37.5-16.822-37.5-37.5S415.322,362,436,362z M383.5,399.5c0,20.678-16.822,37.5-37.5,37.5s-37.5-16.822-37.5-37.5
	S325.322,362,346,362S383.5,378.822,383.5,399.5z M218.5,212.09c0-6.893,5.607-12.5,12.5-12.5h50c6.893,0,12.5,5.607,12.5,12.5v62.5
	h-75V212.09z M338.5,289.59v57.954c-15.908,2.286-29.534,11.724-37.5,24.947C291.806,357.231,275.077,347,256,347
	s-35.806,10.231-45,25.491c-7.966-13.223-21.592-22.661-37.5-24.947V289.59H338.5z M293.5,399.5c0,20.678-16.822,37.5-37.5,37.5
	s-37.5-16.822-37.5-37.5S235.322,362,256,362S293.5,378.822,293.5,399.5z M76,437c-20.678,0-37.5-16.822-37.5-37.5
	S55.322,362,76,362s37.5,16.822,37.5,37.5S96.678,437,76,437z M128.5,399.5c0-20.678,16.822-37.5,37.5-37.5s37.5,16.822,37.5,37.5
	S186.678,437,166,437S128.5,420.178,128.5,399.5z M113.5,497h-75v-2.5c0-6.893,5.607-12.5,12.5-12.5h50
	c6.893,0,12.5,5.607,12.5,12.5V497z M128.5,494.5c0-6.893,5.607-12.5,12.5-12.5h50c6.893,0,12.5,5.607,12.5,12.5v2.5h-75V494.5z
	 M293.5,497h-75v-2.5c0-6.893,5.607-12.5,12.5-12.5h50c6.893,0,12.5,5.607,12.5,12.5V497z M411,482h50c6.893,0,12.5,5.607,12.5,12.5
	v2.5h-75v-2.5C398.5,487.607,404.107,482,411,482z M383.5,494.5v2.5h-75v-2.5c0-6.893,5.607-12.5,12.5-12.5h50
	C377.893,482,383.5,487.607,383.5,494.5z M321,467c-7.875,0-14.982,3.333-20,8.655c-5.018-5.323-12.125-8.655-20-8.655h-50
	c-7.875,0-14.982,3.333-20,8.655c-5.018-5.323-12.125-8.655-20-8.655h-17.5v-15.544c15.908-2.286,29.534-11.724,37.5-24.947
	c9.194,15.26,25.923,25.491,45,25.491s35.806-10.231,45-25.491c7.966,13.223,21.592,22.661,37.5,24.947V467H321z"/>
<g>
</g>
<g>
</g>
<g>
</g>
<g>
</g>
<g>
</g>
<g>
</g>
<g>
</g>
<g>
</g>
<g>
</g>
<g>
</g>
<g>
</g>
<g>
</g>
<g>
</g>
<g>
</g>
<g>
</g>
</svg>
