<svg height="512pt" viewBox="-15 0 511 512" width="512pt" xmlns="http://www.w3.org/2000/svg"><g fill-rule="evenodd"><path d="m8.058594 80.25h464.882812v-52.570312c0-11.082032-9.070312-20.121094-20.15625-20.121094h-424.597656c-11.058594 0-20.128906 9.066406-20.128906 20.121094zm0 0" fill="#e6e6e6"/><path d="m327.128906 80.25h-319.070312v404.042969c0 11.082031 9.070312 20.148437 20.128906 20.148437h424.597656c11.085938 0 20.15625-9.066406 20.15625-20.148437v-404.042969zm0 0" fill="#8ebfe8"/><path d="m430.757812 80.25h42.1875v-52.570312c0-6.71875-3.347656-12.699219-8.421874-16.355469-3.316407-2.378907-7.371094-3.765625-11.738282-3.765625h-42.1875c11.085938 0 20.15625 9.039062 20.15625 20.121094v52.570312zm0 0" fill="#c4cccf"/><path d="m464.523438 80.25h-33.765626v404.042969c0 11.082031-9.074218 20.148437-20.160156 20.148437h42.1875c4.367188 0 8.421875-1.414062 11.738282-3.796875 5.074218-3.65625 8.421874-9.636719 8.421874-16.351562v-404.042969zm0 0" fill="#519ad6"/><path d="m381.878906 422.851562-22.257812-25.050781 4.566406-4.054687c10.320312-10.203125 2.324219-19.667969-7.65625-21.90625l-34.589844-7.738282c-13.75-3.683593-18.34375 2.75-17.605468 14.085938l3.742187 36.671875c1.046875 10.203125 9.523437 19.214844 20.894531 10.171875l4.535156-4.050781 22.285157 25.023437c1.644531 1.871094 4.507812 2.039063 6.378906.398438l19.335937-17.175782c1.84375-1.640624 2.011719-4.53125.371094-6.375zm0 0" fill="#c4cccf"/><path d="m362.257812 402.136719c0 13.515625-5.898437 25.644531-15.28125 33.976562l8.816407 9.894531c1.644531 1.867188 4.507812 2.039063 6.378906.394532l19.335937-17.171875c1.84375-1.644531 2.011719-4.535157.367188-6.378907l-19.617188-22.078124zm0 0" fill="#90a4ae"/><path d="m225.0625 295.890625c-1.332031-3.941406-2.835938-7.679687-4.535156-11.226563-12.390625-25.589843-34.902344-40.324218-57.5-45.710937-13.917969-4.167969-29.484375-4.363281-43.972656.027344-22.539063 5.441406-44.964844 20.152343-57.328126 45.683593-1.699218 3.542969-3.203124 7.285157-4.535156 11.222657-8.648437 25.847656 13.070313 28.484375 23.21875 28.484375h121.433594c10.148438 0 31.839844-2.636719 23.21875-28.480469zm0 0" fill="#f55a8e"/><path d="m153.191406 242.835938c18.203125 7.226562 35.097656 20.886718 45.21875 41.828124 1.703125 3.542969 3.207032 7.285157 4.539063 11.226563 5.300781 15.839844-.824219 22.980469-8.675781 26.097656-4.964844 1.984375-10.605469 2.382813-14.546876 2.382813h22.117188c10.148438 0 31.835938-2.636719 23.21875-28.480469-1.332031-3.941406-2.835938-7.679687-4.535156-11.226563-12.390625-25.589843-34.902344-40.324218-57.5-45.710937-3.828125-1.164063-7.796875-2.011719-11.824219-2.523437-6.945313-.933594-14.117187-.90625-21.175781.113281 3.710937.539062 7.339844 1.332031 10.886718 2.410156 1.332032.3125 2.636719.652344 3.941407 1.019531 2.804687.824219 5.585937 1.757813 8.335937 2.863282zm0 0" fill="#ba4583"/><path d="m187.609375 176.890625h-26.707031c-18.171875 0-25.742188-4.507813-32.09375-8.332031-8.730469-5.273438-10.714844-9.269532-18.230469 1.558594-3.34375 4.816406-6.011719 6.773437-10.546875 6.773437h-5.839844v25.25c0 18.390625 14.601563 34.148437 32.351563 39.957031 4.988281 1.476563 9.101562 2.382813 14.371093 2.410156 4.933594.027344 9.867188-.820312 14.574219-2.351562 4.308594-1.445312 8.449219-3.457031 12.25-5.980469 11.59375-7.765625 19.875-20.179687 19.875-34.035156v-25.25zm0 0" fill="#ffdda6"/><path d="m187.609375 184.570312c.226563-2.296874.027344-5.527343 0-7.679687-.367187-64.136719-93.417969-55.578125-93.417969-2.976563v10.683594l5.839844-.027344c4.535156 0 7.199219-1.957031 10.546875-6.746093 7.511719-10.828125 9.496094-6.859375 18.230469-1.585938 6.347656 3.824219 13.917968 8.332031 32.09375 8.332031zm0 0" fill="#546e7a"/><path d="m171.335938 176.890625c0 2.152344.199218 5.382813 0 7.679687h16.273437c.226563-2.296874.027344-5.527343 0-7.679687-.199219-35.085937-28.097656-48.40625-53.386719-44.695313 19.675782 2.976563 36.941406 17.117188 37.113282 44.695313zm0 0" fill="#37474f"/><path d="m171.335938 202.253906c0 13.855469-8.277344 26.269532-19.902344 34.007813-1.929688 1.304687-3.96875 2.464843-6.066406 3.484375-1.984376.964844-4.054688 1.816406-6.183594 2.496094-1.925782.652343-3.882813 1.160156-5.867188 1.558593.992188.167969 1.984375.3125 3.003906.425781 1.445313.167969 2.949219.253907 4.566407.28125h.027343c4.789063.027344 9.582032-.765624 14.148438-2.238281.140625-.027343.285156-.085937.425781-.113281 4.308594-1.445312 8.449219-3.457031 12.246094-5.980469 11.597656-7.765625 19.875-20.179687 19.875-34.035156v-17.570313h-16.273437zm0 0" fill="#fcc368"/><path d="m70.316406 367.363281c-9.808594 0-17.746094 7.933594-17.746094 17.738281 0 9.808594 7.9375 17.742188 17.746094 17.742188 9.8125 0 17.75-7.933594 17.75-17.742188 0-9.804687-7.9375-17.738281-17.75-17.738281zm0 0" fill="#fcd968"/><path d="m139.808594 367.363281c-9.8125 0-17.75 7.933594-17.75 17.738281 0 9.808594 7.941406 17.742188 17.75 17.742188s17.746094-7.933594 17.746094-17.742188c.003906-9.804687-7.9375-17.738281-17.746094-17.738281zm0 0" fill="#fcd968"/><path d="m209.300781 367.363281c-9.8125 0-17.75 7.933594-17.75 17.738281 0 9.808594 7.9375 17.742188 17.75 17.742188 9.808594 0 17.746094-7.933594 17.746094-17.742188 0-9.804687-7.9375-17.738281-17.746094-17.738281zm0 0" fill="#fcd968"/></g><path d="m411.363281 49.207031c4.171875 0 7.558594-3.382812 7.558594-7.558593 0-4.171876-3.386719-7.554688-7.558594-7.554688h-.199219c-4.171874 0-7.554687 3.382812-7.554687 7.554688 0 4.175781 3.382813 7.558593 7.554687 7.558593zm0 0"/><path d="m375.128906 49.207031c4.175782 0 7.558594-3.382812 7.558594-7.558593 0-4.171876-3.382812-7.554688-7.558594-7.554688h-.226562c-4.175782 0-7.558594 3.382812-7.558594 7.554688 0 4.175781 3.382812 7.558593 7.558594 7.558593zm0 0"/><path d="m338.867188 49.375c4.171874 0 7.558593-3.382812 7.558593-7.554688 0-4.175781-3.386719-7.558593-7.558593-7.558593h-.199219c-4.171875 0-7.554688 3.382812-7.554688 7.558593 0 4.171876 3.382813 7.554688 7.554688 7.554688zm0 0"/><path d="m452.785156 0h-424.597656c-15.265625 0-27.6875 12.414062-27.6875 27.679688v456.613281c0 15.277343 12.421875 27.707031 27.6875 27.707031h424.597656c15.28125 0 27.714844-12.429688 27.714844-27.707031v-88.902344c0-4.171875-3.382812-7.554687-7.558594-7.554687-4.171875 0-7.554687 3.382812-7.554687 7.554687v88.902344c0 6.945312-5.652344 12.59375-12.601563 12.59375h-424.597656c-6.933594 0-12.574219-5.648438-12.574219-12.59375v-396.488281h190.140625c4.175782 0 7.558594-3.382813 7.558594-7.554688 0-4.175781-3.382812-7.558594-7.558594-7.558594h-190.140625v-45.011718c0-6.929688 5.640625-12.566407 12.574219-12.566407h424.597656c6.949219 0 12.601563 5.636719 12.601563 12.566407v45.011718h-225.015625c-4.171875 0-7.554688 3.382813-7.554688 7.558594 0 4.171875 3.382813 7.554688 7.554688 7.554688h225.015625v272.953124c0 4.175782 3.382812 7.558594 7.558593 7.558594 4.171876 0 7.554688-3.382812 7.554688-7.558594v-333.078124c0-15.265626-12.433594-27.679688-27.714844-27.679688zm0 0"/><path d="m266.21875 41.820312c0-4.175781-3.382812-7.558593-7.558594-7.558593h-184.910156c-4.175781 0-7.558594 3.382812-7.558594 7.558593 0 4.171876 3.382813 7.558594 7.558594 7.558594h184.910156c4.175782-.003906 7.558594-3.386718 7.558594-7.558594zm0 0"/><path d="m296.816406 378.953125 3.742188 36.679687c.929687 9.011719 5.820312 16.425782 12.765625 19.347657 3.613281 1.523437 10.867187 3.039062 19.515625-3.386719l17.277344 19.402344c2.378906 2.707031 5.714843 4.089844 9.066406 4.089844 2.835937 0 5.683594-.992188 7.976562-3.007813.011719-.007813.019532-.015625.03125-.023437l19.347656-17.1875c2.398438-2.136719 3.816407-5.089844 4.007813-8.3125.1875-3.238282-.890625-6.335938-3.019531-8.722657l-17.292969-19.464843c7.394531-7.800782 6.75-15.167969 5.667969-18.933594-2.078125-7.246094-8.867188-12.984375-17.722656-14.96875l-34.441407-7.703125c-8.683593-2.296875-15.566406-1.421875-20.460937 2.589843-4.875 4-7.058594 10.5-6.484375 19.328126.007812.089843.015625.183593.023437.273437zm16.046875-7.914063c.488281-.402343 2.613281-.847656 7.121094.363282.101563.027344.203125.050781.304687.074218l34.585938 7.738282c3.636719.8125 6.066406 2.871094 6.5 4.390625.441406 1.539062-1.414062 3.667969-2.375 4.636719l-4.398438 3.90625c-1.496093 1.332031-2.40625 3.203124-2.527343 5.203124-.117188 2.003907.566406 3.96875 1.894531 5.46875l20.242188 22.785157-14.78125 13.125-20.277344-22.773438c-1.335938-1.496093-3.210938-2.40625-5.214844-2.519531-.140625-.007812-.285156-.011719-.429688-.011719-1.851562 0-3.648437.679688-5.035156 1.921875l-4.359375 3.894532c-1.089843.84375-3.433593 2.433593-4.929687 1.808593-1.457032-.613281-3.207032-3.261719-3.589844-6.957031l-3.726562-36.527344c-.261719-4.300781.535156-6.148437.996093-6.527344zm0 0"/><path d="m141.113281 290.089844h-.171875c-4.171875 0-7.554687 3.382812-7.554687 7.554687 0 4.175781 3.382812 7.558594 7.554687 7.558594h.171875c4.171875 0 7.558594-3.382813 7.558594-7.558594 0-4.171875-3.386719-7.554687-7.558594-7.554687zm0 0"/><path d="m140.289062 281.964844h.199219c4.175781 0 7.558594-3.382813 7.558594-7.558594 0-4.171875-3.382813-7.554688-7.558594-7.554688h-.199219c-4.171874 0-7.554687 3.382813-7.554687 7.554688 0 4.175781 3.382813 7.558594 7.554687 7.558594zm0 0"/><path d="m201.84375 331.925781c13.316406 0 23.171875-3.902343 28.496094-11.289062 4.964844-6.886719 5.597656-16.019531 1.878906-27.171875-1.445312-4.277344-3.089844-8.339844-4.890625-12.09375-9.890625-20.425782-26.878906-36.257813-47.796875-44.972656 9.921875-9.394532 15.632812-21.683594 15.632812-34.257813v-17.375c.160157-2.046875.101563-4.269531.042969-6.253906-.015625-.617188-.035156-1.203125-.042969-1.664063-.207031-36.5-26.605468-52.804687-52.738281-52.804687-.058593 0-.121093 0-.179687 0-13.8125.042969-27.535156 4.691406-37.652344 12.757812-11.582031 9.230469-17.960938 22.414063-17.960938 37.113281v28.226563c0 13.003906 6.144532 25.25 15.828126 34.367187-20.808594 8.757813-37.703126 24.550782-47.546876 44.890626-1.796874 3.734374-3.4375 7.796874-4.890624 12.09375-3.71875 11.117187-3.089844 20.246093 1.871093 27.136718 5.320313 7.390625 15.179688 11.300782 28.515625 11.300782h121.433594zm-100.097656-158.011719c0-22.5 20.890625-34.699218 40.546875-34.757812h.128906c17.289063 0 37.472656 9.886719 37.632813 37.832031v.023438h-19.152344c-16.164063 0-22.28125-3.6875-28.1875-7.246094-1.148438-.691406-2.175782-1.363281-3.171875-2.019531-3.265625-2.140625-6.632813-4.347656-10.820313-4.347656-.5 0-1.011718.035156-1.535156.101562-5.65625.71875-9.503906 5.238281-12.804688 9.996094-1.222656 1.75-2.003906 2.628906-2.636718 3.070312zm0 18.140626c7.492187-.597657 11.660156-5.082032 15.039062-9.921876 1.074219-1.546874 1.851563-2.503906 2.378906-3.085937.640626.390625 1.414063.898437 2.09375 1.34375 1.058594.695313 2.261719 1.480469 3.648438 2.320313 6.597656 3.972656 15.628906 9.414062 35.996094 9.414062h19.152344v10.015625c0 10.453125-6.179688 20.828125-16.5 27.742187-6.9375 4.601563-15 7.089844-22.59375 7.070313-6.25-.039063-12.324219-1.609375-17.757813-4.28125-.457031-.300781-.945313-.554687-1.457031-.75-11.652344-6.285156-20-17.695313-20-29.78125zm-37.585938 119.742187c-2.4375-3.390625-1.238281-9.21875.191406-13.488281 1.25-3.695313 2.660157-7.183594 4.175782-10.347656 9.71875-20.074219 27.734375-34.851563 49.675781-40.925782 6.980469 3.160156 14.683594 4.980469 22.664063 5.03125h.292968c7.582032 0 15.367188-1.777344 22.625-5.089844 22.054688 6 40.167969 20.800782 49.929688 40.960938 1.527344 3.183594 2.9375 6.671875 4.179687 10.339844 1.429688 4.296875 2.625 10.132812.183594 13.523437-2.296875 3.183594-8.214844 5.011719-16.234375 5.011719h-.015625v-24.890625c0-4.175781-3.382813-7.558594-7.554687-7.558594-4.175782 0-7.558594 3.382813-7.558594 7.558594v24.890625h-92.425782v-24.890625c0-4.175781-3.382812-7.558594-7.554687-7.558594-4.175781 0-7.558594 3.382813-7.558594 7.558594v24.871094c-7.402343-.175781-12.839843-1.976563-15.015625-4.996094zm0 0"/><path d="m414.453125 234.515625h-83.808594c-4.171875 0-7.554687 3.382813-7.554687 7.554687 0 4.175782 3.382812 7.558594 7.554687 7.558594h83.808594c4.175781 0 7.558594-3.382812 7.558594-7.558594 0-4.171874-3.382813-7.554687-7.558594-7.554687zm0 0"/><path d="m414.453125 205.296875h-83.808594c-4.171875 0-7.554687 3.382813-7.554687 7.554687 0 4.175782 3.382812 7.558594 7.554687 7.558594h83.808594c4.175781 0 7.558594-3.382812 7.558594-7.558594 0-4.171874-3.382813-7.554687-7.558594-7.554687zm0 0"/><path d="m295.90625 207.5625-21.945312 22.378906-8.433594-6.285156c-3.34375-2.496094-8.078125-1.804688-10.574219 1.542969-2.496094 3.347656-1.804687 8.082031 1.542969 10.574219l13.722656 10.230468c1.347656 1.007813 2.933594 1.5 4.515625 1.5 1.96875 0 3.925781-.769531 5.398437-2.265625l26.5625-27.09375c2.921876-2.980469 2.875-7.765625-.101562-10.6875-2.980469-2.921875-7.765625-2.878906-10.6875.105469zm0 0"/><path d="m422.011719 320.261719c0-4.175781-3.382813-7.558594-7.558594-7.558594h-83.808594c-4.175781 0-7.558593 3.382813-7.558593 7.558594 0 4.171875 3.382812 7.554687 7.558593 7.554687h83.808594c4.175781 0 7.558594-3.382812 7.558594-7.554687zm0 0"/><path d="m414.453125 283.515625h-83.808594c-4.171875 0-7.554687 3.382813-7.554687 7.554687 0 4.175782 3.382812 7.558594 7.554687 7.558594h83.808594c4.175781 0 7.558594-3.382812 7.558594-7.558594 0-4.171874-3.382813-7.554687-7.558594-7.554687zm0 0"/><path d="m256.496094 313.992188 13.722656 10.230468c1.347656 1.007813 2.933594 1.5 4.515625 1.5 1.96875 0 3.925781-.769531 5.398437-2.269531l26.5625-27.089844c2.921876-2.980469 2.875-7.765625-.101562-10.6875-2.980469-2.921875-7.765625-2.875-10.6875.105469l-21.945312 22.378906-8.433594-6.285156c-3.34375-2.492188-8.078125-1.804688-10.574219 1.542969-2.492187 3.34375-1.804687 8.078125 1.542969 10.574219zm0 0"/><path d="m414.453125 156.296875h-83.808594c-4.171875 0-7.554687 3.382813-7.554687 7.554687 0 4.175782 3.382812 7.558594 7.554687 7.558594h83.808594c4.175781 0 7.558594-3.382812 7.558594-7.558594 0-4.171874-3.382813-7.554687-7.558594-7.554687zm0 0"/><path d="m414.453125 127.105469h-83.808594c-4.171875 0-7.554687 3.382812-7.554687 7.554687 0 4.175782 3.382812 7.558594 7.554687 7.558594h83.808594c4.175781 0 7.558594-3.382812 7.558594-7.558594 0-4.171875-3.382813-7.554687-7.558594-7.554687zm0 0"/><path d="m306.589844 129.265625c-2.976563-2.921875-7.765625-2.875-10.6875.105469l-21.941406 22.378906-8.433594-6.285156c-3.347656-2.496094-8.078125-1.804688-10.574219 1.542968-2.496094 3.34375-1.804687 8.078126 1.539063 10.574219l13.722656 10.230469c1.351562 1.007812 2.9375 1.5 4.515625 1.5 1.972656 0 3.929687-.765625 5.398437-2.265625l26.566406-27.09375c2.921876-2.980469 2.875-7.765625-.105468-10.6875zm0 0"/><path d="m45.011719 385.101562c0 13.953126 11.351562 25.300782 25.304687 25.300782 13.957032 0 25.308594-11.347656 25.308594-25.300782 0-13.949218-11.351562-25.296874-25.308594-25.296874-13.953125 0-25.304687 11.347656-25.304687 25.296874zm35.496093 0c0 5.617188-4.570312 10.183594-10.191406 10.183594-5.617187 0-10.1875-4.566406-10.1875-10.183594 0-5.613281 4.570313-10.183593 10.1875-10.183593 5.621094 0 10.191406 4.570312 10.191406 10.183593zm0 0"/><path d="m114.503906 385.101562c0 13.953126 11.351563 25.300782 25.304688 25.300782s25.304687-11.347656 25.304687-25.300782c0-13.949218-11.351562-25.296874-25.304687-25.296874s-25.304688 11.347656-25.304688 25.296874zm35.496094 0c0 5.617188-4.574219 10.183594-10.191406 10.183594-5.621094 0-10.191406-4.566406-10.191406-10.183594 0-5.613281 4.570312-10.183593 10.191406-10.183593s10.191406 4.570312 10.191406 10.183593zm0 0"/><path d="m209.300781 410.402344c13.953125 0 25.304688-11.347656 25.304688-25.300782 0-13.949218-11.351563-25.296874-25.304688-25.296874s-25.308593 11.347656-25.308593 25.296874c0 13.953126 11.355468 25.300782 25.308593 25.300782zm0-35.484375c5.617188 0 10.1875 4.570312 10.1875 10.183593 0 5.617188-4.570312 10.183594-10.1875 10.183594-5.621093 0-10.191406-4.566406-10.191406-10.183594 0-5.613281 4.570313-10.183593 10.191406-10.183593zm0 0"/></svg>