<svg height="512pt" viewBox="-77 0 512 512" width="512pt" xmlns="http://www.w3.org/2000/svg"><path d="m307.660156 7.605469h-257.429687c-23.542969 0-42.625 19.082031-42.625 42.625v411.539062c0 23.542969 19.082031 42.628907 42.625 42.628907h257.433593c23.542969 0 42.625-19.085938 42.625-42.628907v-411.539062c0-23.542969-19.085937-42.625-42.628906-42.625zm0 0" fill="#244f5e"/><path d="m319.875 50.234375v411.539063c0 6.742187-5.46875 12.207031-12.207031 12.207031h-257.441407c-6.742187 0-12.207031-5.46875-12.207031-12.207031v-411.539063c0-6.742187 5.476563-12.214844 12.207031-12.214844h35.046876c11.644531 0 21.878906 7.703125 25.097656 18.890625 3.222656 11.191406 13.457031 18.894532 25.101562 18.894532h86.953125c11.640625 0 21.875-7.703126 25.097657-18.894532 3.21875-11.1875 13.453124-18.890625 25.097656-18.890625h35.046875c6.730469 0 12.207031 5.472657 12.207031 12.214844zm0 0" fill="#e6e6e6"/><path d="m350.289062 124.074219c4.199219 0 7.605469-3.40625 7.605469-7.605469v-66.238281c0-27.695313-22.535156-50.230469-50.234375-50.230469h-257.429687c-27.699219 0-50.230469 22.535156-50.230469 50.230469v411.539062c0 27.695313 22.53125 50.230469 50.230469 50.230469h257.433593c27.695313 0 50.230469-22.535156 50.230469-50.230469v-314.882812c0-4.199219-3.40625-7.605469-7.605469-7.605469-4.199218 0-7.605468 3.40625-7.605468 7.605469v314.882812c0 19.3125-15.710938 35.023438-35.023438 35.023438h-257.429687c-19.3125 0-35.023438-15.710938-35.023438-35.023438v-411.539062c0-19.3125 15.710938-35.023438 35.023438-35.023438h257.433593c19.308594 0 35.019532 15.710938 35.019532 35.023438v66.238281c0 4.199219 3.40625 7.605469 7.605468 7.605469zm0 0"/><path d="m38.019531 411.492188c-4.199219 0-7.605469 3.40625-7.605469 7.605468v42.675782c0 10.921874 8.890626 19.808593 19.8125 19.808593h257.441407c10.921875 0 19.808593-8.886719 19.808593-19.808593v-411.539063c0-10.929687-8.886718-19.820313-19.808593-19.820313h-35.046875c-14.949219 0-28.273438 10.03125-32.40625 24.394532-2.269532 7.886718-9.585938 13.394531-17.792969 13.394531h-86.953125c-8.203125 0-15.519531-5.507813-17.789062-13.394531-4.132813-14.363282-17.457032-24.394532-32.40625-24.394532h-35.046876c-10.921874 0-19.8125 8.890626-19.8125 19.820313v338.445313c0 4.199218 3.40625 7.605468 7.605469 7.605468s7.605469-3.40625 7.605469-7.605468v-338.445313c0-2.542969 2.0625-4.613281 4.601562-4.613281h35.046876c8.207031 0 15.523437 5.507812 17.792968 13.394531 4.132813 14.363281 17.457032 24.394531 32.402344 24.394531h86.953125c14.949219 0 28.273437-10.03125 32.40625-24.394531 2.269531-7.886719 9.585937-13.394531 17.792969-13.394531h35.046875c2.535156 0 4.601562 2.070312 4.601562 4.613281v411.539063c0 2.535156-2.066406 4.601562-4.601562 4.601562h-257.441407c-2.539062 0-4.601562-2.066406-4.601562-4.601562v-42.675782c0-4.199218-3.40625-7.605468-7.605469-7.605468zm0 0"/><path d="m219.828125 45.621094c4.199219 0 7.605469-3.402344 7.605469-7.601563s-3.40625-7.605469-7.605469-7.605469h-81.761719c-4.203125 0-7.605468 3.40625-7.605468 7.605469s3.402343 7.601563 7.605468 7.601563zm0 0"/><path d="m146.699219 161.019531h-55.023438c-4.199219 0-7.605469 3.40625-7.605469 7.605469v55.023438c0 4.199218 3.40625 7.605468 7.605469 7.605468h55.023438c4.199219 0 7.605469-3.40625 7.605469-7.605468v-55.023438c0-4.199219-3.40625-7.605469-7.605469-7.605469zm-7.601563 55.027344h-39.820312v-39.820313h39.820312zm0 0"/><path d="m203.472656 168.625v55.023438c0 4.199218 3.402344 7.605468 7.601563 7.605468h55.027343c4.199219 0 7.601563-3.40625 7.601563-7.605468v-55.023438c0-4.199219-3.402344-7.605469-7.601563-7.605469h-55.027343c-4.199219 0-7.601563 3.40625-7.601563 7.605469zm15.207032 7.601562h39.816406v39.820313h-39.816406zm0 0"/><path d="m84.070312 343.050781c0 4.199219 3.40625 7.601563 7.605469 7.601563h55.023438c4.199219 0 7.605469-3.402344 7.605469-7.601563v-55.027343c0-4.199219-3.40625-7.605469-7.605469-7.605469h-55.023438c-4.199219 0-7.605469 3.40625-7.605469 7.605469zm15.207032-47.421875h39.820312v39.816406h-39.820312zm0 0"/><path d="m123.988281 303.132812h-9.601562c-4.199219 0-7.605469 3.402344-7.605469 7.601563v9.605469c0 4.199218 3.40625 7.601562 7.605469 7.601562h9.601562c4.199219 0 7.605469-3.402344 7.605469-7.601562v-9.605469c0-4.199219-3.40625-7.601563-7.605469-7.601563zm0 0"/><path d="m114.386719 208.542969h9.601562c4.199219 0 7.605469-3.40625 7.605469-7.605469v-9.601562c0-4.199219-3.40625-7.605469-7.605469-7.605469h-9.601562c-4.199219 0-7.605469 3.40625-7.605469 7.605469v9.601562c0 4.199219 3.40625 7.605469 7.605469 7.605469zm0 0"/><path d="m91.675781 264.175781h36.375c4.199219 0 7.605469-3.402343 7.605469-7.601562s-3.40625-7.605469-7.605469-7.605469h-36.375c-4.199219 0-7.605469 3.40625-7.605469 7.605469s3.40625 7.601562 7.605469 7.601562zm0 0"/><path d="m202.34375 308.847656h-28.636719c-4.199219 0-7.605469 3.40625-7.605469 7.605469s3.40625 7.601563 7.605469 7.601563h36.242188c4.199219 0 7.601562-3.402344 7.601562-7.601563v-60.617187c0-4.199219-3.402343-7.601563-7.601562-7.601563-4.203125 0-7.605469 3.402344-7.605469 7.601563zm0 0"/><path d="m247.175781 316.453125v-53.011719h18.925781c4.199219 0 7.601563-3.40625 7.601563-7.605468 0-4.199219-3.402344-7.601563-7.601563-7.601563h-26.53125c-4.199218 0-7.601562 3.402344-7.601562 7.601563v60.617187c0 4.199219 3.402344 7.601563 7.601562 7.601563 4.203126 0 7.605469-3.402344 7.605469-7.601563zm0 0"/><path d="m178.886719 161.019531c-4.199219 0-7.601563 3.40625-7.601563 7.605469v80.34375h-19.597656c-4.199219 0-7.601562 3.40625-7.601562 7.605469s3.402343 7.601562 7.601562 7.601562h19.597656v20.128907c0 4.199218 3.402344 7.605468 7.601563 7.605468 4.203125 0 7.605469-3.40625 7.605469-7.605468v-115.679688c0-4.199219-3.40625-7.605469-7.605469-7.605469zm0 0"/><path d="m167.246094 343.050781c0 4.199219 3.402344 7.601563 7.601562 7.601563h91.253906c4.199219 0 7.601563-3.402344 7.601563-7.601563v-65.589843c0-4.199219-3.402344-7.601563-7.601563-7.601563-4.199218 0-7.605468 3.402344-7.605468 7.601563v57.984374h-83.648438c-4.199218 0-7.601562 3.40625-7.601562 7.605469zm0 0"/><path d="m243.390625 183.730469h-9.605469c-4.199218 0-7.601562 3.40625-7.601562 7.605469v9.601562c0 4.199219 3.402344 7.605469 7.601562 7.605469h9.605469c4.199219 0 7.601563-3.40625 7.601563-7.605469v-9.601562c0-4.199219-3.402344-7.605469-7.601563-7.605469zm0 0"/><path d="m55.332031 371.792969c0 4.199219 3.40625 7.601562 7.605469 7.601562h50.816406c4.199219 0 7.601563-3.402343 7.601563-7.601562s-3.402344-7.605469-7.601563-7.605469h-43.210937v-43.21875c0-4.199219-3.40625-7.605469-7.605469-7.605469s-7.605469 3.40625-7.605469 7.605469zm0 0"/><path d="m244.023438 379.394531h50.816406c4.199218 0 7.601562-3.402343 7.601562-7.601562v-50.824219c0-4.199219-3.402344-7.605469-7.601562-7.605469-4.203125 0-7.605469 3.40625-7.605469 7.605469v43.21875h-43.210937c-4.199219 0-7.605469 3.40625-7.605469 7.605469s3.40625 7.601562 7.605469 7.601562zm0 0"/><path d="m113.753906 132.277344h-50.816406c-4.199219 0-7.605469 3.40625-7.605469 7.605468v50.8125c0 4.199219 3.40625 7.605469 7.605469 7.605469s7.605469-3.40625 7.605469-7.605469v-43.210937h43.210937c4.199219 0 7.601563-3.402344 7.601563-7.601563 0-4.199218-3.402344-7.605468-7.601563-7.605468zm0 0"/><path d="m302.441406 139.882812c0-4.199218-3.402344-7.605468-7.601562-7.605468h-50.816406c-4.199219 0-7.605469 3.40625-7.605469 7.605468 0 4.199219 3.40625 7.601563 7.605469 7.601563h43.210937v43.210937c0 4.199219 3.402344 7.605469 7.605469 7.605469 4.199218 0 7.601562-3.40625 7.601562-7.605469zm0 0"/></svg>