<?xml version="1.0" encoding="iso-8859-1"?>
<!-- Generator: Adobe Illustrator 19.0.0, SVG Export Plug-In . SVG Version: 6.00 Build 0)  -->
<svg version="1.1" id="Capa_1" xmlns="http://www.w3.org/2000/svg" xmlns:xlink="http://www.w3.org/1999/xlink" x="0px" y="0px"
	 viewBox="0 0 512 512" style="enable-background:new 0 0 512 512;" xml:space="preserve">
<path style="fill:#D8F4FF;" d="M368.258,504.483H143.742c-16.607,0-30.069-13.462-30.069-30.069V36.409
	c0-16.607,13.462-30.069,30.069-30.069h224.515c16.607,0,30.069,13.462,30.069,30.069v438.005
	C398.327,491.021,384.864,504.483,368.258,504.483z"/>
<path style="fill:#A9DFF5;" d="M368.258,6.34h-30.069c16.607,0,30.069,13.462,30.069,30.069v438.005
	c0,16.607-13.462,30.069-30.069,30.069h30.069c16.607,0,30.069-13.462,30.069-30.069V36.409
	C398.327,19.802,384.864,6.34,368.258,6.34z"/>
<path style="fill:#3F405C;" d="M314.133,44.427H197.867c-7.75,0-14.032-6.282-14.032-14.032V6.34h144.331v24.055
	C328.166,38.145,321.883,44.427,314.133,44.427z"/>
<path style="fill:#36374F;" d="M298.097,6.34v24.055c0,7.75-6.282,14.032-14.032,14.032h30.069c7.75,0,14.032-6.282,14.032-14.032
	V6.34C328.166,6.34,298.097,6.34,298.097,6.34z"/>
<rect x="113.67" y="428.303" style="fill:#71C8EB;" width="284.653" height="30.069"/>
<rect x="368.255" y="428.303" style="fill:#6DAEE3;" width="30.069" height="30.069"/>
<path style="fill:#3F405C;" d="M368.258,504.483H143.742c-16.607,0-30.069-13.462-30.069-30.069v-16.037h284.653v16.037
	C398.327,491.021,384.864,504.483,368.258,504.483z"/>
<path style="fill:#36374F;" d="M368.258,458.377v16.037c0,16.607-13.462,30.069-30.069,30.069h30.069
	c16.607,0,30.069-13.462,30.069-30.069v-16.037H368.258z"/>
<path d="M398.327,408.763c-4.153,0-7.517,3.365-7.517,7.517v34.579H191.853c-4.153,0-7.517,3.365-7.517,7.517
	s3.365,7.517,7.517,7.517h198.957v8.52c0,12.435-10.117,22.552-22.552,22.552H143.742c-12.435,0-22.552-10.117-22.552-22.552v-8.52
	h38.505c4.153,0,7.517-3.365,7.517-7.517s-3.365-7.517-7.517-7.517h-38.505V94.793c0-4.153-3.365-7.517-7.517-7.517
	s-7.517,3.365-7.517,7.517v379.621l0,0c0,20.726,16.861,37.586,37.586,37.586h224.515c20.726,0,37.586-16.861,37.586-37.586l0,0
	V416.28C405.844,412.129,402.478,408.763,398.327,408.763z"/>
<path d="M368.258,0L368.258,0H143.742l0,0c-20.726,0-37.586,16.861-37.586,37.586v26.06c0,4.153,3.365,7.517,7.517,7.517
	s7.517-3.365,7.517-7.517v-26.06c0-12.435,10.117-22.552,22.552-22.552h32.575v16.538c0,11.882,9.667,21.549,21.549,21.549h116.267
	c11.882,0,21.549-9.667,21.549-21.549V15.035h32.575c12.435,0,22.552,10.117,22.552,22.552v347.046c0,4.153,3.365,7.517,7.517,7.517
	c4.153,0,7.517-3.365,7.517-7.517V37.586C405.844,16.861,388.982,0,368.258,0z M320.648,31.572c0,3.592-2.923,6.515-6.515,6.515
	H197.867c-3.592,0-6.515-2.923-6.515-6.515V15.035h129.297V31.572z"/>
<path d="M276.046,488.947c4.153,0,7.517-3.365,7.517-7.517c0-4.153-3.365-7.517-7.517-7.517h-40.092
	c-4.153,0-7.517,3.365-7.517,7.517c0,4.153,3.365,7.517,7.517,7.517H276.046z"/>
<path d="M166.178,243.628h76.26c4.153,0,7.517-3.365,7.517-7.517v-76.419c0-4.153-3.365-7.517-7.517-7.517h-76.26
	c-4.153,0-7.517,3.365-7.517,7.517v76.419C158.661,240.263,162.026,243.628,166.178,243.628z M173.695,167.209h61.225v61.385
	h-61.225V167.209z"/>
<path d="M218.752,175.912h-28.886c-4.153,0-7.517,3.365-7.517,7.517v28.945c0,4.153,3.365,7.517,7.517,7.517h28.885
	c4.153,0,7.517-3.365,7.517-7.517v-28.945C226.269,179.276,222.903,175.912,218.752,175.912z M211.234,204.857h-13.852v-13.911
	h13.851v13.911H211.234z"/>
<path d="M165.793,270.291h105.062c4.153,0,7.517-3.365,7.517-7.517V159.691c0-4.153-3.365-7.517-7.517-7.517
	s-7.517,3.365-7.517,7.517v95.565h-97.545c-4.153,0-7.517,3.365-7.517,7.517S161.64,270.291,165.793,270.291z"/>
<path d="M294.568,187.819h51.639c4.153,0,7.517-3.365,7.517-7.517v-20.61c0-4.153-3.365-7.517-7.517-7.517h-51.639
	c-4.153,0-7.517,3.365-7.517,7.517v20.61C287.05,184.453,290.416,187.819,294.568,187.819z M302.085,167.209h36.605v5.576h-36.605
	V167.209z"/>
<path d="M287.05,262.774c0,4.153,3.365,7.517,7.517,7.517h51.639c4.153,0,7.517-3.365,7.517-7.517v-59.182
	c0-4.153-3.365-7.517-7.517-7.517h-51.639c-4.153,0-7.517,3.365-7.517,7.517V262.774z M302.085,211.109h36.605v44.147h-36.605
	V211.109z"/>
<path d="M230.903,287.298v68.845c0,4.153,3.365,7.517,7.517,7.517h107.786c4.153,0,7.517-3.365,7.517-7.517v-68.845
	c0-4.153-3.365-7.517-7.517-7.517H238.421C234.268,279.781,230.903,283.146,230.903,287.298z M245.938,294.816h92.752v53.81h-92.752
	V294.816z"/>
<path d="M323.717,303.232h-62.808c-4.153,0-7.517,3.365-7.517,7.517v21.941c0,4.153,3.365,7.517,7.517,7.517h62.808
	c4.153,0,7.517-3.365,7.517-7.517v-21.941C331.235,306.598,327.87,303.232,323.717,303.232z M316.2,325.173h-47.774v-6.907H316.2
	V325.173z"/>
<path d="M320.387,218.253c-4.153,0-7.517,3.365-7.517,7.517v13.83c0,4.153,3.365,7.517,7.517,7.517c4.153,0,7.517-3.365,7.517-7.517
	v-13.83C327.904,221.618,324.538,218.253,320.387,218.253z"/>
<path d="M165.838,275.707c-4.153,0-7.517,3.365-7.517,7.517v72.918c0,4.153,3.365,7.517,7.517,7.517H212.3
	c4.153,0,7.517-3.365,7.517-7.517s-3.365-7.517-7.517-7.517h-38.944v-65.401C173.355,279.072,169.991,275.707,165.838,275.707z"/>
<path d="M219.818,284.733c0-4.153-3.365-7.517-7.517-7.517h-22.331c-4.153,0-7.517,3.365-7.517,7.517v50.791
	c0,4.153,3.365,7.517,7.517,7.517h22.331c4.153,0,7.517-3.365,7.517-7.517V284.733z M204.783,328.007h-7.297v-35.756h7.297V328.007z
	"/>
<path d="M210.896,32.901c4.152,0,7.517-3.366,7.517-7.517l0,0c0-4.152-3.366-7.517-7.517-7.517c-4.152,0-7.517,3.366-7.517,7.517
	l0,0C203.379,29.535,206.745,32.901,210.896,32.901z"/>
<path d="M228.938,32.901c4.152,0,7.517-3.366,7.517-7.517l0,0c0-4.152-3.366-7.517-7.517-7.517c-4.152,0-7.517,3.366-7.517,7.517
	l0,0C221.421,29.535,224.786,32.901,228.938,32.901z"/>
<g>
</g>
<g>
</g>
<g>
</g>
<g>
</g>
<g>
</g>
<g>
</g>
<g>
</g>
<g>
</g>
<g>
</g>
<g>
</g>
<g>
</g>
<g>
</g>
<g>
</g>
<g>
</g>
<g>
</g>
</svg>
